<svg width="997" height="252" viewBox="0 0 997 252" fill="none" xmlns="http://www.w3.org/2000/svg">
<path d="M323.716 0.287856C313.705 1.6271 306.647 8.32332 304.294 18.714C303.556 21.9005 303.51 30.1207 303.372 119.388C303.233 183.533 303.372 218.4 303.648 221.91C304.248 228.513 305.494 232.254 308.262 235.949C315.458 245.323 326.484 247.817 337.786 242.552C340.831 241.167 346.136 235.671 347.705 232.393C350.38 226.712 350.288 229.576 350.288 154.116C350.288 112.923 350.473 84.7526 350.703 84.7526C351.349 84.7526 354.809 88.7241 364.405 100.685C369.295 106.781 376.03 115.093 379.351 119.157C391.346 133.843 394.206 137.399 405.831 151.715C420.317 169.541 419.763 168.894 432.68 184.734C438.447 191.846 445.874 200.99 449.196 205.054C452.471 209.117 456.392 213.874 457.822 215.675C466.449 226.251 474.66 235.902 477.244 238.396C480.427 241.536 484.994 244.076 489.1 245C494.313 246.201 501.371 244.631 506.722 241.121C510.182 238.858 513.919 233.686 515.58 228.883L516.595 225.835L516.733 159.104C516.871 85.3067 516.964 67.8534 513.965 62.1732C512.212 58.8943 507.691 53.9068 505.108 52.429C504.093 51.7825 499.803 50.3047 499.803 50.3047C499.803 50.3047 495.697 49.2887 491.868 49.4734C487.624 49.7043 486.978 49.8429 483.426 51.5978C478.951 53.8606 475.076 57.6474 472.677 62.127C469.863 67.3916 469.77 89.2321 469.77 127.054C469.77 146.866 469.586 160.951 469.355 160.951C468.848 160.951 466.126 157.764 458.837 148.713C455.746 144.88 452.24 140.539 450.995 139.015C449.749 137.491 446.889 133.935 444.628 131.164C440.2 125.715 428.067 110.752 423.408 105.072C418.748 99.3457 410.767 89.5092 406.569 84.3369C403.156 80.0883 383.273 55.7048 381.104 53.1187C380.689 52.6107 377.506 48.6392 374 44.3443C343.414 6.61462 343.138 6.29137 337.463 3.33578C332.112 0.564941 328.145 -0.312501 323.716 0.287856Z" fill="#8357A1"/>
<path d="M598.71 0.334243C594.05 1.11931 592.851 1.53494 589.76 3.336C585.516 5.87595 582.609 8.97006 580.349 13.542L578.273 17.5114V121.189C578.227 192.077 578.319 225.65 578.642 227.267C579.98 233.778 584.732 239.782 590.821 242.645C597.51 245.831 594.143 245.693 660.757 245.693C715.793 245.693 721.237 245.647 724.328 244.908C730.002 243.569 732.816 242.045 736.368 238.304C743.288 230.961 745.041 222.418 741.489 213.182C738.813 206.393 734.061 202.098 726.265 199.466C723.866 198.635 721.052 198.588 674.828 198.496C647.933 198.45 625.651 198.404 625.374 198.358C624.913 198.358 624.774 192.677 624.774 171.573V144.788H666.893C693.65 144.788 709.704 144.603 711.041 144.28C714.778 143.449 718.423 141.832 720.637 139.985C728.802 133.243 731.201 121.974 726.45 112.554C724.374 108.397 722.667 106.458 718.93 103.964C713.117 100.085 715.747 100.27 668.6 100.131C645.626 100.039 626.389 99.9001 625.835 99.7615L624.774 99.5306V73.2075V46.8845L625.835 46.6536C626.389 46.5151 633.309 46.3765 641.151 46.3303L653.309 45.2757L659.373 44.1137C664.494 41.4352 667.862 38.064 670.076 33.4921C672.06 29.382 672.429 27.5347 672.337 22.7781C672.152 13.4496 666.893 5.87595 657.805 1.85821C656.467 1.25787 654.345 0.611327 653.099 0.472778C649.409 -0.081391 601.8 -0.173752 598.71 0.334243Z" fill="#8357A1"/>
<path d="M59.1019 16.8669C53.6122 17.8367 48.2609 21.5312 38.8499 30.7673C27.5936 41.8508 20.2125 51.9644 13.3849 65.5877C9.74049 72.8843 9.27916 73.9464 7.06482 80.3655C1.89801 95.2819 -0.131802 107.289 0.00659421 121.928C0.0988586 132.227 0.56018 137.537 2.26707 146.404C8.07973 176.468 22.9343 201.775 46.7385 222.141C53.889 228.237 60.4398 232.439 70.9579 237.75C82.3525 243.43 85.7663 244.723 96.5613 247.494C109.847 250.911 112.708 251.235 128.854 251.235C144.723 251.235 147.768 250.911 160.178 247.725C171.757 244.769 176.877 242.783 188.595 236.734C197.96 231.885 202.942 228.606 211.43 221.494C227.023 208.517 239.433 192.123 247.413 173.882C251.796 163.86 254.01 156.241 256.502 142.71C257.655 136.244 257.747 134.905 257.747 123.083C257.747 113.154 257.563 109.229 256.917 105.072C255.164 93.758 253.088 85.4916 249.628 76.4402C247.367 70.3443 240.494 56.9519 236.941 51.5949C228.315 38.5719 212.768 22.7781 204.833 18.9912C200.359 16.8207 197.452 16.3127 192.101 16.6822C188.318 16.9593 187.257 17.2364 184.212 18.7603C178.769 21.485 173.833 27.0267 171.895 32.6146C170.142 37.833 170.834 45.1296 173.602 50.4866C175.263 53.7192 175.54 53.9963 180.983 58.8453C190.948 67.7582 193.716 70.8523 198.975 79.1187C203.219 85.8611 204.557 88.6319 207.048 95.9747C210.185 105.257 210.969 109.783 211.292 120.081C211.523 127.839 211.43 129.548 210.508 134.859C207.325 153.239 200.082 167.647 187.672 180.162C173.556 194.432 158.332 201.683 136.373 204.592C129.592 205.516 126.778 205.423 117.09 203.853C107.126 202.283 99.9289 200.066 92.271 196.233C69.0665 184.503 53.2893 163.491 48.0763 137.26C47.1998 132.873 46.7846 122.944 47.1998 115.694C47.7534 106.319 49.8294 98.099 54.0274 88.6781C59.2403 77.1791 64.4994 70.4367 79.2617 56.5824C83.3213 52.7956 85.3511 49.3782 86.6428 44.2983C89.1801 34.1847 83.921 23.7017 73.8642 18.7142C70.1275 16.8669 69.5739 16.7284 65.5604 16.5898C63.2077 16.4975 60.3014 16.636 59.1019 16.8669Z" fill="#8357A1"/>
<circle cx="130.857" cy="20.6918" r="20.1318" fill="#A600FF" fill-opacity="0.5"/>
<circle cx="493.229" cy="20.6918" r="20.1318" fill="#A600FF" fill-opacity="0.5"/>
<circle cx="709.647" cy="20.6918" r="20.1318" fill="#A600FF" fill-opacity="0.5"/>
<path d="M941.247 0.0803067C938.91 0.250961 938.34 0.738586 935.859 4.83458C934.805 6.56563 933.493 8.71115 932.895 9.58885C932.325 10.4666 931.241 12.1976 930.5 13.441C929.759 14.6845 928.79 16.2204 928.362 16.8544C927.934 17.4882 927.222 18.6586 926.794 19.4631C925.369 22.0719 920.209 30.6296 918.014 33.9697C917.615 34.5793 916.275 36.7735 915.021 38.8459C913.766 40.9183 911.714 44.2585 910.46 46.2821C909.205 48.2813 907.181 51.5727 905.955 53.5964C904.73 55.5956 903.162 58.1799 902.449 59.3258C901.765 60.4718 900.283 62.8855 899.199 64.6896C894.496 72.4671 892.586 75.6123 891.901 76.6363C891.531 77.2458 890.106 79.5376 888.766 81.7563C887.454 83.9749 886.057 86.218 885.715 86.7544C885.345 87.2907 883.948 89.5825 882.58 91.8743C881.211 94.1418 879.016 97.7257 877.733 99.7981C876.422 101.871 874.37 105.211 873.172 107.234C871.946 109.234 870.493 111.647 869.894 112.598C869.324 113.525 867.784 116.06 866.473 118.206C863.736 122.692 861.598 126.203 860.002 128.811C856.895 133.834 854.586 137.613 853.844 138.929C853.388 139.734 852.533 141.099 851.934 141.977C851.336 142.855 849.939 145.098 848.799 146.975C847.658 148.852 846.632 150.486 846.518 150.632C846.404 150.754 844.551 153.826 842.385 157.459C840.218 161.067 837.937 164.871 837.31 165.87C836.683 166.87 835.343 169.064 834.317 170.746C833.291 172.429 831.694 174.989 830.754 176.476C829.813 177.939 827.846 181.133 826.421 183.546C822.03 190.836 815.901 200.93 811.312 208.415C810.656 209.488 809.174 211.901 808.033 213.779C806.893 215.656 805.468 217.899 804.898 218.777C804.299 219.655 802.56 222.507 800.992 225.116C795.804 233.747 793.438 237.672 792.925 238.403C792.668 238.794 791.556 240.549 790.502 242.304C789.418 244.035 788.164 246.083 787.708 246.815C785.769 249.838 784.971 251.325 785.171 251.496C785.313 251.618 792.583 251.667 801.306 251.642L817.213 251.569L818.125 250.667C818.61 250.179 820.662 246.986 822.686 243.597C824.71 240.208 827.675 235.331 829.271 232.796C830.868 230.236 833.291 226.359 834.631 224.141C835.97 221.922 837.595 219.289 838.251 218.289C838.878 217.29 840.56 214.51 841.957 212.145C844.494 207.854 845.805 205.733 847.145 203.661C847.544 203.051 848.428 201.686 849.084 200.613C849.739 199.54 850.737 197.956 851.307 197.078C851.849 196.2 853.36 193.738 854.643 191.592C855.925 189.447 857.522 186.814 858.206 185.741C858.862 184.668 860.059 182.742 860.829 181.474C861.627 180.206 863.252 177.573 864.478 175.623C865.675 173.672 867.67 170.43 868.896 168.43C870.122 166.407 871.576 163.993 872.175 163.067C872.745 162.116 874.027 160.043 875.025 158.434C875.994 156.825 877.163 154.948 877.591 154.289C878.361 153.095 879.9 150.584 884.518 142.952C885.772 140.88 887.255 138.466 887.853 137.589C888.424 136.711 889.108 135.662 889.336 135.272C890.419 133.395 895.094 125.739 895.265 125.52C895.379 125.374 896.662 123.301 898.116 120.888C899.57 118.474 901.223 115.719 901.822 114.792C902.421 113.842 903.76 111.647 904.815 109.916C905.87 108.161 906.839 106.625 906.953 106.503C907.067 106.357 908.293 104.382 909.661 102.114C911.058 99.8225 912.284 97.8477 912.398 97.7257C912.512 97.5795 913.823 95.434 915.306 92.9471C916.788 90.4602 918.67 87.4126 919.468 86.1936C920.266 84.9502 920.922 83.9018 920.922 83.853C920.922 83.7799 921.72 82.4877 922.661 80.9761C925.711 76.1487 926.452 74.9296 930.386 68.4687C935.061 60.8131 938.197 55.6687 943.442 47.2573C944.012 46.3065 945.637 43.6733 947.006 41.4059C948.374 39.1141 949.999 36.5541 950.569 35.6764C951.168 34.7987 952.565 32.5556 953.676 30.6783C954.788 28.801 956.271 26.3385 957.012 25.1926C957.724 24.0467 959.15 21.7549 960.148 20.0726C961.145 18.3903 962.343 16.4399 962.799 15.7328C963.739 14.3187 967.046 8.93057 969.498 4.88335C971.094 2.20145 971.664 0.714203 971.208 0.324112C970.923 0.0803067 944.212 -0.114746 941.247 0.0803067Z" fill="#A600FF" fill-opacity="0.5"/>
<path d="M945.017 110.836C941.879 111.099 940.169 111.482 936.937 112.582C931.948 114.281 926.186 117.415 923 120.166C920.846 122.008 916.84 126.243 915.435 128.156C910.68 134.616 908.713 138.731 906.769 146.362L906.043 149.257L905.949 179.161C905.902 198.945 905.949 209.783 906.113 211.218C906.488 214.352 908.034 220.309 909.181 222.94C909.884 224.615 910.915 226.72 911.547 227.845C911.945 228.562 912.578 229.759 912.976 230.476C913.959 232.271 916.208 235.285 918.058 237.27C919.581 238.873 923.235 242.199 924.874 243.419C925.717 244.041 930.613 246.983 930.823 246.983C930.894 246.983 931.713 247.342 932.65 247.797C935.039 248.921 938.014 249.926 941.855 250.859C945.088 251.648 945.205 251.648 950.756 251.648C956.002 251.648 956.588 251.601 959.539 250.979C968.838 248.993 976.426 244.926 982.985 238.347C984.226 237.103 985.585 235.62 986.053 235.022C990.035 229.806 993.689 222.486 994.907 217.318C996.499 210.524 996.382 212.63 996.499 184.663C996.593 155.549 996.499 153.156 995.047 145.764C994.087 140.908 990.854 133.874 987.458 129.305C982.095 122.104 978.558 118.946 971.906 115.453C967.409 113.085 964.036 111.865 960.031 111.219C957.642 110.812 948.179 110.573 945.017 110.836ZM954.058 141.745C954.808 141.888 955.791 142.223 956.237 142.487C956.986 142.965 957.009 143.037 956.869 144.042C956.799 144.592 955.3 149.448 953.52 154.831C951.763 160.19 950.17 165.046 949.983 165.644C949.795 166.242 949.186 168.108 948.601 169.831C948.039 171.529 946.423 176.481 945.017 180.836C943.589 185.166 942.347 188.945 942.23 189.209C942.113 189.472 941.317 191.936 940.45 194.711C938.553 200.931 938.319 201.41 937.452 201.41H936.773L936.796 178.204C936.843 155.573 936.843 154.951 937.335 152.845C937.592 151.649 938.131 150.046 938.529 149.257C939.724 146.817 942.98 143.754 945.603 142.606C947.875 141.601 951.412 141.243 954.058 141.745ZM965.114 155.118C965.324 156.362 965.395 163.491 965.395 181.888C965.395 208.658 965.371 208.969 964.247 211.625C963.825 212.653 962.115 215.452 961.366 216.362C960.616 217.271 958.79 218.563 957.291 219.232C956.4 219.639 955.51 220.07 955.3 220.189C954.456 220.644 951.927 220.979 950.217 220.835C947.523 220.644 944.174 219.352 943.612 218.299C943.354 217.773 943.706 216.29 945.486 210.859C946.235 208.563 947.172 205.596 947.57 204.28C947.945 202.965 948.859 200.166 949.561 198.06C951.552 192.008 958.345 171.027 960.827 163.132C962.069 159.185 963.24 155.62 963.427 155.19C963.615 154.783 963.755 154.305 963.755 154.113C963.755 153.659 964.223 153.228 964.551 153.348C964.715 153.419 964.95 154.209 965.114 155.118Z" fill="#A600FF" fill-opacity="0.5"/>
<path d="M811.484 140.813C814.622 140.55 816.332 140.167 819.564 139.067C824.553 137.368 830.315 134.234 833.5 131.483C835.655 129.641 839.66 125.406 841.066 123.493C845.82 117.033 847.788 112.918 849.732 105.287L850.458 102.392L850.552 72.4882C850.599 52.7036 850.552 41.8664 850.388 40.431C850.013 37.2971 848.467 31.3402 847.319 28.7086C846.617 27.034 845.586 24.9287 844.954 23.8043C844.556 23.0866 843.923 21.8905 843.525 21.1728C842.541 19.3785 840.293 16.3642 838.442 14.3786C836.92 12.7757 833.266 9.45037 831.627 8.23029C830.783 7.60828 825.888 4.66572 825.677 4.66572C825.607 4.66572 824.787 4.30687 823.85 3.85233C821.461 2.72794 818.487 1.72316 814.646 0.790151C811.413 0.000683222 811.296 0.000683212 805.745 0.000682727C800.499 0.000682268 799.913 0.0485287 796.962 0.670533C787.663 2.65616 780.074 6.72312 773.516 13.302C772.275 14.546 770.916 16.0293 770.448 16.6273C766.466 21.8426 762.812 29.1631 761.594 34.3306C760.002 41.1248 760.119 39.0195 760.002 66.9858C759.908 96.1004 760.002 98.4928 761.454 105.885C762.414 110.741 765.646 117.775 769.043 122.344C774.406 129.545 777.943 132.703 784.595 136.196C789.092 138.564 792.465 139.784 796.47 140.43C798.859 140.837 808.322 141.076 811.484 140.813ZM802.443 109.904C801.693 109.761 800.709 109.426 800.264 109.163C799.515 108.684 799.491 108.612 799.632 107.608C799.702 107.057 801.201 102.201 802.981 96.8181C804.738 91.4593 806.331 86.6029 806.518 86.0048C806.705 85.4067 807.314 83.5407 807.9 81.8183C808.462 80.1197 810.078 75.1676 811.484 70.8135C812.912 66.4834 814.154 62.7036 814.271 62.4404C814.388 62.1773 815.184 59.7132 816.051 56.9381C817.948 50.718 818.182 50.2395 819.049 50.2395L819.728 50.2395L819.705 73.4451C819.658 96.0765 819.658 96.6985 819.166 98.8038C818.908 99.9999 818.37 101.603 817.971 102.392C816.777 104.832 813.521 107.895 810.898 109.043C808.626 110.048 805.089 110.407 802.443 109.904ZM791.387 96.5311C791.177 95.287 791.106 88.1579 791.106 69.7609C791.106 42.9908 791.13 42.6798 792.254 40.0243C792.676 38.9956 794.385 36.1966 795.135 35.2875C795.884 34.3784 797.711 33.0866 799.21 32.4167C800.1 32.01 800.99 31.5794 801.201 31.4598C802.044 31.0052 804.574 30.6703 806.284 30.8138C808.977 31.0052 812.327 32.2971 812.889 33.3497C813.147 33.876 812.795 35.3593 811.015 40.7899C810.266 43.0865 809.329 46.053 808.931 47.3687C808.556 48.6845 807.642 51.4835 806.94 53.5888C804.949 59.6414 798.156 80.6221 795.674 88.5168C794.432 92.4641 793.261 96.0287 793.074 96.4593C792.886 96.866 792.746 97.3444 792.746 97.5358C792.746 97.9904 792.277 98.421 791.949 98.3014C791.786 98.2296 791.551 97.4401 791.387 96.5311Z" fill="#A600FF" fill-opacity="0.5"/>
</svg>
