<svg width="238" height="252" viewBox="0 0 238 252" fill="none" xmlns="http://www.w3.org/2000/svg">
<path d="M182.247 0.0803067C179.91 0.250961 179.34 0.738586 176.859 4.83458C175.805 6.56563 174.493 8.71115 173.895 9.58885C173.325 10.4666 172.241 12.1976 171.5 13.441C170.759 14.6845 169.79 16.2204 169.362 16.8544C168.934 17.4882 168.222 18.6586 167.794 19.4631C166.369 22.0719 161.209 30.6296 159.014 33.9697C158.615 34.5793 157.275 36.7735 156.021 38.8459C154.766 40.9183 152.714 44.2585 151.46 46.2821C150.205 48.2813 148.181 51.5727 146.955 53.5964C145.73 55.5956 144.162 58.1799 143.449 59.3258C142.765 60.4718 141.283 62.8855 140.199 64.6896C135.496 72.4671 133.586 75.6123 132.901 76.6363C132.531 77.2458 131.106 79.5376 129.766 81.7563C128.454 83.9749 127.057 86.218 126.715 86.7544C126.345 87.2907 124.948 89.5825 123.58 91.8743C122.211 94.1418 120.016 97.7257 118.733 99.7981C117.422 101.871 115.37 105.211 114.172 107.234C112.946 109.234 111.493 111.647 110.894 112.598C110.324 113.525 108.784 116.06 107.473 118.206C104.736 122.692 102.598 126.203 101.002 128.811C97.8947 133.834 95.5856 137.613 94.8444 138.929C94.3883 139.734 93.5331 141.099 92.9345 141.977C92.3358 142.855 90.939 145.098 89.7987 146.975C88.6584 148.852 87.6321 150.486 87.5181 150.632C87.4041 150.754 85.5511 153.826 83.3846 157.459C81.218 161.067 78.9375 164.871 78.3103 165.87C77.6832 166.87 76.3433 169.064 75.3171 170.746C74.2908 172.429 72.6944 174.989 71.7537 176.476C70.8129 177.939 68.8459 181.133 67.4206 183.546C63.0305 190.836 56.9015 200.93 52.3118 208.415C51.6562 209.488 50.1738 211.901 49.0335 213.779C47.8932 215.656 46.4679 217.899 45.8977 218.777C45.2991 219.655 43.5601 222.507 41.9922 225.116C36.8039 233.747 34.4378 237.672 33.9247 238.403C33.6682 238.794 32.5564 240.549 31.5016 242.304C30.4183 244.035 29.164 246.083 28.7079 246.815C26.7694 249.838 25.9712 251.325 26.1708 251.496C26.3133 251.618 33.5826 251.667 42.3058 251.642L58.2128 251.569L59.125 250.667C59.6096 250.179 61.6622 246.986 63.6862 243.597C65.7102 240.208 68.6749 235.331 70.2713 232.796C71.8677 230.236 74.2908 226.359 75.6306 224.141C76.9705 221.922 78.5954 219.289 79.251 218.289C79.8782 217.29 81.5601 214.51 82.957 212.145C85.4941 207.854 86.8054 205.733 88.1453 203.661C88.5444 203.051 89.4281 201.686 90.0838 200.613C90.7394 199.54 91.7372 197.956 92.3073 197.078C92.8489 196.2 94.3598 193.738 95.6427 191.592C96.9255 189.447 98.5219 186.814 99.206 185.741C99.8617 184.668 101.059 182.742 101.829 181.474C102.627 180.206 104.252 177.573 105.478 175.623C106.675 173.672 108.67 170.43 109.896 168.43C111.122 166.407 112.576 163.993 113.175 163.067C113.745 162.116 115.027 160.043 116.025 158.434C116.994 156.825 118.163 154.948 118.591 154.289C119.361 153.095 120.9 150.584 125.518 142.952C126.772 140.88 128.255 138.466 128.853 137.589C129.424 136.711 130.108 135.662 130.336 135.272C131.419 133.395 136.094 125.739 136.265 125.52C136.379 125.374 137.662 123.301 139.116 120.888C140.57 118.474 142.223 115.719 142.822 114.792C143.421 113.842 144.76 111.647 145.815 109.916C146.87 108.161 147.839 106.625 147.953 106.503C148.067 106.357 149.293 104.382 150.661 102.114C152.058 99.8225 153.284 97.8477 153.398 97.7257C153.512 97.5795 154.823 95.434 156.306 92.9471C157.788 90.4602 159.67 87.4126 160.468 86.1936C161.266 84.9502 161.922 83.9018 161.922 83.853C161.922 83.7799 162.72 82.4877 163.661 80.9761C166.711 76.1487 167.452 74.9296 171.386 68.4687C176.061 60.8131 179.197 55.6687 184.442 47.2573C185.012 46.3065 186.637 43.6733 188.006 41.4059C189.374 39.1141 190.999 36.5541 191.569 35.6764C192.168 34.7987 193.565 32.5556 194.676 30.6783C195.788 28.801 197.271 26.3385 198.012 25.1926C198.724 24.0467 200.15 21.7549 201.148 20.0726C202.145 18.3903 203.343 16.4399 203.799 15.7328C204.739 14.3187 208.046 8.93057 210.498 4.88335C212.094 2.20145 212.664 0.714203 212.208 0.324112C211.923 0.0803067 185.212 -0.114746 182.247 0.0803067Z" fill="#A600FF" fill-opacity="0.5"/>
<path d="M186.017 110.836C182.879 111.099 181.169 111.482 177.937 112.582C172.948 114.281 167.186 117.415 164 120.166C161.846 122.008 157.84 126.243 156.435 128.156C151.68 134.616 149.713 138.731 147.769 146.362L147.043 149.257L146.949 179.161C146.902 198.945 146.949 209.783 147.113 211.218C147.488 214.352 149.034 220.309 150.181 222.94C150.884 224.615 151.915 226.72 152.547 227.845C152.945 228.562 153.578 229.759 153.976 230.476C154.959 232.271 157.208 235.285 159.058 237.27C160.581 238.873 164.235 242.199 165.874 243.419C166.717 244.041 171.613 246.983 171.823 246.983C171.894 246.983 172.713 247.342 173.65 247.797C176.039 248.921 179.014 249.926 182.855 250.859C186.088 251.648 186.205 251.648 191.756 251.648C197.002 251.648 197.588 251.601 200.539 250.979C209.838 248.993 217.426 244.926 223.985 238.347C225.226 237.103 226.585 235.62 227.053 235.022C231.035 229.806 234.689 222.486 235.907 217.318C237.499 210.524 237.382 212.63 237.499 184.663C237.593 155.549 237.499 153.156 236.047 145.764C235.087 140.908 231.854 133.874 228.458 129.305C223.095 122.104 219.558 118.946 212.906 115.453C208.409 113.085 205.036 111.865 201.031 111.219C198.642 110.812 189.179 110.573 186.017 110.836ZM195.058 141.745C195.808 141.888 196.791 142.223 197.237 142.487C197.986 142.965 198.009 143.037 197.869 144.042C197.799 144.592 196.3 149.448 194.52 154.831C192.763 160.19 191.17 165.046 190.983 165.644C190.795 166.242 190.186 168.108 189.601 169.831C189.039 171.529 187.423 176.481 186.017 180.836C184.589 185.166 183.347 188.945 183.23 189.209C183.113 189.472 182.317 191.936 181.45 194.711C179.553 200.931 179.319 201.41 178.452 201.41H177.773L177.796 178.204C177.843 155.573 177.843 154.951 178.335 152.845C178.592 151.649 179.131 150.046 179.529 149.257C180.724 146.817 183.98 143.754 186.603 142.606C188.875 141.601 192.412 141.243 195.058 141.745ZM206.114 155.118C206.324 156.362 206.395 163.491 206.395 181.888C206.395 208.658 206.371 208.969 205.247 211.625C204.825 212.653 203.115 215.452 202.366 216.362C201.616 217.271 199.79 218.563 198.291 219.232C197.4 219.639 196.51 220.07 196.3 220.189C195.456 220.644 192.927 220.979 191.217 220.835C188.523 220.644 185.174 219.352 184.612 218.299C184.354 217.773 184.706 216.29 186.486 210.859C187.235 208.563 188.172 205.596 188.57 204.28C188.945 202.965 189.859 200.166 190.561 198.06C192.552 192.008 199.345 171.027 201.827 163.132C203.069 159.185 204.24 155.62 204.427 155.19C204.615 154.783 204.755 154.305 204.755 154.113C204.755 153.659 205.223 153.228 205.551 153.348C205.715 153.419 205.95 154.209 206.114 155.118Z" fill="#A600FF" fill-opacity="0.5"/>
<path d="M52.4835 140.813C55.6221 140.55 57.3319 140.167 60.5642 139.067C65.5531 137.368 71.315 134.234 74.5004 131.483C76.6552 129.641 80.6604 125.406 82.0658 123.493C86.8205 117.033 88.7879 112.918 90.732 105.287L91.4581 102.392L91.5517 72.4882C91.5986 52.7036 91.5517 41.8664 91.3878 40.431C91.013 37.2971 89.4672 31.3402 88.3195 28.7086C87.6168 27.034 86.5862 24.9287 85.9539 23.8043C85.5557 23.0866 84.9233 21.8905 84.5251 21.1728C83.5414 19.3785 81.2928 16.3642 79.4425 14.3786C77.92 12.7757 74.2662 9.45037 72.6266 8.23029C71.7834 7.60828 66.8882 4.66572 66.6774 4.66572C66.6071 4.66572 65.7874 4.30687 64.8505 3.85233C62.4614 2.72794 59.4868 1.72316 55.6456 0.790151C52.4133 0.000683222 52.2962 0.000683212 46.7451 0.000682727C41.4986 0.000682268 40.913 0.0485287 37.9618 0.670533C28.6632 2.65616 21.0744 6.72312 14.5162 13.302C13.2748 14.546 11.9163 16.0293 11.4479 16.6273C7.46614 21.8426 3.81227 29.1631 2.59432 34.3306C1.00161 41.1248 1.11872 39.0195 1.00161 66.9858C0.907918 96.1004 1.00161 98.4928 2.45378 105.885C3.41409 110.741 6.64635 117.775 10.0426 122.344C15.4062 129.545 18.943 132.703 25.5949 136.196C30.0919 138.564 33.4647 139.784 37.4699 140.43C39.859 140.837 49.3216 141.076 52.4835 140.813ZM43.4426 109.904C42.6931 109.761 41.7094 109.426 41.2643 109.163C40.5148 108.684 40.4914 108.612 40.6319 107.608C40.7022 107.057 42.2012 102.201 43.9813 96.8181C45.738 91.4593 47.3307 86.6029 47.5181 86.0048C47.7054 85.4067 48.3144 83.5407 48.9 81.8183C49.4621 80.1197 51.0782 75.1676 52.4836 70.8135C53.9123 66.4834 55.1537 62.7036 55.2708 62.4404C55.3879 62.1773 56.1843 59.7132 57.0509 56.9381C58.9481 50.718 59.1823 50.2395 60.0489 50.2395L60.7282 50.2395L60.7047 73.4451C60.6579 96.0765 60.6579 96.6985 60.166 98.8038C59.9084 99.9999 59.3697 101.603 58.9715 102.392C57.777 104.832 54.5213 107.895 51.898 109.043C49.626 110.048 46.0893 110.407 43.4426 109.904ZM32.3873 96.5311C32.1765 95.287 32.1063 88.1579 32.1063 69.7609C32.1063 42.9908 32.1297 42.6798 33.254 40.0243C33.6755 38.9956 35.3854 36.1966 36.1349 35.2875C36.8844 34.3784 38.7113 33.0866 40.2103 32.4167C41.1004 32.01 41.9904 31.5794 42.2012 31.4598C43.0444 31.0052 45.574 30.6703 47.2838 30.8138C49.9774 31.0052 53.3268 32.2971 53.8889 33.3497C54.1465 33.876 53.7952 35.3593 52.0151 40.7899C51.2656 43.0865 50.3287 46.053 49.9305 47.3687C49.5558 48.6845 48.6423 51.4835 47.9397 53.5888C45.9488 59.6414 39.1563 80.6221 36.6736 88.5168C35.4322 92.4641 34.2611 96.0287 34.0737 96.4593C33.8863 96.866 33.7458 97.3444 33.7458 97.5358C33.7458 97.9904 33.2774 98.421 32.9495 98.3014C32.7855 98.2296 32.5513 97.4401 32.3873 96.5311Z" fill="#A600FF" fill-opacity="0.5"/>
</svg>
