<svg width="436" height="436" viewBox="0 0 436 436" fill="none" xmlns="http://www.w3.org/2000/svg">
<path d="M155.021 170.397C151.183 170.911 148.478 173.478 147.576 177.462C147.293 178.683 147.275 181.835 147.222 216.059C147.169 240.652 147.222 254.02 147.328 255.365C147.558 257.897 148.035 259.331 149.097 260.748C151.855 264.342 156.082 265.298 160.415 263.28C161.582 262.748 163.616 260.641 164.217 259.384C165.243 257.207 165.208 258.304 165.208 229.374C165.208 213.581 165.278 202.78 165.367 202.78C165.614 202.78 166.941 204.303 170.619 208.889C172.494 211.226 175.076 214.413 176.349 215.971C180.948 221.601 182.044 222.964 186.501 228.453C192.054 235.287 191.842 235.039 196.793 241.112C199.004 243.839 201.851 247.345 203.125 248.903C204.38 250.461 205.884 252.285 206.432 252.975C209.739 257.03 212.887 260.73 213.877 261.686C215.098 262.89 216.848 263.864 218.422 264.218C220.421 264.678 223.127 264.076 225.178 262.731C226.505 261.863 227.937 259.88 228.574 258.039L228.963 256.87L229.016 231.286C229.069 202.993 229.104 196.301 227.955 194.124C227.283 192.866 225.55 190.954 224.559 190.388C224.17 190.14 222.525 189.573 222.525 189.573C222.525 189.573 220.951 189.184 219.484 189.255C217.857 189.343 217.609 189.396 216.247 190.069C214.532 190.937 213.046 192.388 212.127 194.106C211.048 196.124 211.012 204.498 211.012 218.998C211.012 226.594 210.942 231.994 210.853 231.994C210.659 231.994 209.615 230.772 206.821 227.302C205.636 225.833 204.292 224.168 203.814 223.584C203.337 223 202.24 221.637 201.374 220.574C199.676 218.485 195.025 212.748 193.239 210.571C191.453 208.375 188.393 204.604 186.784 202.621C185.475 200.992 177.853 191.644 177.021 190.652C176.862 190.457 175.642 188.935 174.298 187.288C162.573 172.823 162.467 172.699 160.291 171.566C158.24 170.503 156.719 170.167 155.021 170.397Z" fill="#5C2E97"/>
<path d="M260.442 170.415C258.656 170.716 258.196 170.875 257.011 171.566C255.384 172.54 254.27 173.726 253.404 175.479L252.608 177V216.75C252.59 243.928 252.626 256.799 252.749 257.419C253.262 259.916 255.084 262.217 257.418 263.315C259.983 264.537 258.692 264.484 284.229 264.484C305.327 264.484 307.414 264.466 308.599 264.183C310.774 263.669 311.853 263.085 313.215 261.651C315.868 258.836 316.54 255.56 315.178 252.019C314.152 249.416 312.331 247.77 309.342 246.76C308.422 246.442 307.343 246.424 289.623 246.389C279.312 246.371 270.771 246.353 270.664 246.336C270.488 246.336 270.435 244.158 270.435 236.066V225.797H286.581C296.838 225.797 302.993 225.726 303.506 225.603C304.938 225.284 306.335 224.664 307.184 223.956C310.315 221.371 311.234 217.051 309.413 213.439C308.617 211.845 307.962 211.102 306.53 210.146C304.302 208.658 305.31 208.729 287.235 208.676C278.428 208.641 271.053 208.588 270.841 208.535L270.435 208.446V198.354V188.262L270.841 188.173C271.053 188.12 273.706 188.067 276.713 188.049L281.373 187.645L283.698 187.2C285.661 186.173 286.952 184.88 287.801 183.127C288.562 181.552 288.703 180.843 288.668 179.02C288.597 175.443 286.581 172.54 283.097 170.999C282.584 170.769 281.771 170.521 281.293 170.468C279.878 170.256 261.627 170.22 260.442 170.415Z" fill="#5C2E97"/>
<path d="M53.5788 176.753C51.4743 177.125 49.4228 178.542 45.815 182.083C41.4999 186.332 38.6702 190.21 36.0528 195.433C34.6557 198.23 34.4788 198.637 33.6299 201.098C31.6492 206.817 30.8711 211.421 30.9241 217.033C30.9595 220.982 31.1363 223.018 31.7907 226.417C34.019 237.943 39.7136 247.646 48.8392 255.454C51.5804 257.791 54.0917 259.402 58.1239 261.438C62.4922 263.616 63.8009 264.112 67.9392 265.174C73.0325 266.484 74.129 266.608 80.3188 266.608C86.4025 266.608 87.5697 266.484 92.3271 265.263C96.766 264.13 98.7291 263.368 103.221 261.049C106.811 259.19 108.721 257.933 111.975 255.206C117.953 250.231 122.71 243.945 125.77 236.952C127.45 233.11 128.299 230.188 129.254 225.001C129.696 222.522 129.731 222.008 129.731 217.476C129.731 213.669 129.66 212.164 129.413 210.571C128.741 206.233 127.945 203.064 126.619 199.593C125.752 197.256 123.117 192.122 121.755 190.068C118.448 185.075 112.488 179.02 109.446 177.568C107.731 176.736 106.617 176.541 104.565 176.683C103.115 176.789 102.708 176.895 101.541 177.479C99.4542 178.524 97.5619 180.649 96.8191 182.791C96.147 184.792 96.4123 187.589 97.4734 189.643C98.1101 190.882 98.2162 190.989 100.303 192.848C104.123 196.265 105.184 197.451 107.2 200.62C108.827 203.205 109.34 204.268 110.295 207.083C111.498 210.642 111.798 212.377 111.922 216.325C112.011 219.299 111.975 219.955 111.622 221.991C110.401 229.037 107.625 234.562 102.867 239.36C97.4558 244.831 91.6196 247.61 83.2015 248.726C80.6018 249.08 79.523 249.045 75.8091 248.443C71.9891 247.841 69.2302 246.991 66.2945 245.521C57.3988 241.024 51.3505 232.968 49.3521 222.911C49.0161 221.229 48.8569 217.423 49.0161 214.643C49.2283 211.049 50.0241 207.897 51.6335 204.285C53.6319 199.877 55.648 197.292 61.3073 191.98C62.8635 190.528 63.6417 189.218 64.1369 187.27C65.1096 183.393 63.0935 179.374 59.2381 177.462C57.8056 176.753 57.5934 176.7 56.0548 176.647C55.1528 176.612 54.0386 176.665 53.5788 176.753Z" fill="#5C2E97"/>
<ellipse cx="81.0867" cy="178.22" rx="7.71771" ry="7.71839" fill="#1E0A5E"/>
<ellipse cx="220.005" cy="178.22" rx="7.71771" ry="7.71839" fill="#1E0A5E"/>
<ellipse cx="302.971" cy="178.22" rx="7.71771" ry="7.71839" fill="#1E0A5E"/>
<path d="M391.757 170.318C390.861 170.383 390.642 170.57 389.691 172.14C389.287 172.804 388.784 173.627 388.555 173.963C388.336 174.3 387.921 174.963 387.637 175.44C387.353 175.917 386.981 176.506 386.817 176.749C386.653 176.992 386.38 177.44 386.216 177.749C385.67 178.749 383.692 182.03 382.85 183.31C382.697 183.544 382.184 184.385 381.703 185.18C381.222 185.974 380.435 187.255 379.954 188.031C379.473 188.797 378.697 190.059 378.227 190.835C377.758 191.602 377.156 192.592 376.883 193.032C376.621 193.471 376.053 194.397 375.637 195.088C373.834 198.07 373.102 199.276 372.84 199.669C372.698 199.902 372.151 200.781 371.638 201.631C371.135 202.482 370.599 203.342 370.468 203.548C370.326 203.753 369.791 204.632 369.266 205.511C368.742 206.38 367.9 207.754 367.408 208.549C366.906 209.343 366.119 210.624 365.66 211.4C365.19 212.166 364.632 213.091 364.403 213.456C364.184 213.811 363.594 214.783 363.092 215.606C362.042 217.326 361.223 218.672 360.611 219.672C359.42 221.598 358.534 223.046 358.25 223.551C358.075 223.86 357.748 224.383 357.518 224.72C357.289 225.056 356.753 225.916 356.316 226.636C355.879 227.356 355.485 227.982 355.442 228.038C355.398 228.085 354.688 229.263 353.857 230.655C353.026 232.039 352.152 233.497 351.912 233.88C351.671 234.263 351.158 235.105 350.764 235.75C350.371 236.395 349.759 237.376 349.398 237.946C349.038 238.507 348.284 239.732 347.737 240.657C346.054 243.452 343.704 247.322 341.945 250.191C341.694 250.603 341.125 251.528 340.688 252.248C340.251 252.968 339.705 253.828 339.486 254.164C339.257 254.501 338.59 255.594 337.989 256.594C336 259.903 335.093 261.408 334.896 261.689C334.798 261.838 334.372 262.511 333.967 263.184C333.552 263.848 333.071 264.633 332.896 264.914C332.153 266.073 331.847 266.643 331.924 266.708C331.978 266.755 334.765 266.774 338.109 266.765L344.207 266.736L344.557 266.391C344.743 266.204 345.53 264.979 346.305 263.68C347.081 262.381 348.218 260.511 348.83 259.539C349.442 258.557 350.371 257.071 350.884 256.221C351.398 255.37 352.021 254.36 352.272 253.977C352.513 253.594 353.158 252.528 353.693 251.622C354.666 249.976 355.168 249.163 355.682 248.369C355.835 248.135 356.174 247.612 356.425 247.2C356.677 246.789 357.059 246.181 357.278 245.845C357.485 245.508 358.064 244.564 358.556 243.742C359.048 242.919 359.66 241.91 359.922 241.498C360.174 241.087 360.633 240.349 360.928 239.863C361.234 239.376 361.857 238.367 362.327 237.619C362.786 236.871 363.551 235.628 364.02 234.862C364.49 234.086 365.048 233.16 365.277 232.805C365.496 232.441 365.988 231.646 366.37 231.029C366.742 230.412 367.19 229.693 367.354 229.44C367.649 228.982 368.239 228.019 370.009 225.094C370.49 224.299 371.058 223.374 371.288 223.037C371.506 222.701 371.769 222.299 371.856 222.149C372.271 221.429 374.064 218.494 374.129 218.41C374.173 218.354 374.665 217.56 375.222 216.634C375.78 215.709 376.413 214.652 376.643 214.297C376.872 213.933 377.386 213.091 377.79 212.428C378.195 211.755 378.566 211.166 378.61 211.119C378.654 211.063 379.124 210.306 379.648 209.437C380.184 208.558 380.654 207.801 380.697 207.754C380.741 207.698 381.244 206.875 381.812 205.922C382.38 204.969 383.102 203.8 383.408 203.333C383.714 202.856 383.965 202.454 383.965 202.435C383.965 202.407 384.271 201.912 384.632 201.332C385.801 199.482 386.085 199.014 387.593 196.537C389.385 193.602 390.588 191.63 392.598 188.405C392.817 188.04 393.44 187.031 393.964 186.161C394.489 185.283 395.112 184.301 395.331 183.965C395.56 183.628 396.096 182.768 396.522 182.049C396.948 181.329 397.516 180.385 397.8 179.945C398.074 179.506 398.62 178.627 399.002 177.982C399.385 177.337 399.844 176.59 400.019 176.319C400.379 175.776 401.647 173.711 402.587 172.159C403.199 171.131 403.418 170.561 403.243 170.411C403.133 170.318 392.893 170.243 391.757 170.318Z" fill="#1E0A5E" fill-opacity="0.88"/>
<path d="M393.202 212.78C391.999 212.881 391.344 213.028 390.104 213.45C388.192 214.101 385.983 215.303 384.762 216.358C383.936 217.064 382.4 218.687 381.862 219.421C380.039 221.897 379.285 223.475 378.539 226.401L378.261 227.511L378.225 238.976C378.207 246.561 378.225 250.716 378.288 251.266C378.432 252.468 379.024 254.752 379.464 255.76C379.734 256.402 380.129 257.21 380.371 257.641C380.524 257.916 380.766 258.374 380.919 258.65C381.296 259.338 382.158 260.493 382.867 261.254C383.451 261.869 384.852 263.144 385.48 263.612C385.803 263.85 387.68 264.978 387.761 264.978C387.788 264.978 388.102 265.116 388.461 265.29C389.377 265.721 390.517 266.106 391.99 266.464C393.229 266.767 393.274 266.767 395.402 266.767C397.413 266.767 397.638 266.749 398.769 266.51C402.334 265.749 405.243 264.19 407.757 261.667C408.233 261.19 408.754 260.622 408.934 260.392C410.46 258.393 411.861 255.586 412.328 253.605C412.938 251 412.893 251.807 412.938 241.085C412.974 229.923 412.938 229.006 412.382 226.172C412.013 224.31 410.774 221.613 409.472 219.861C407.416 217.1 406.06 215.89 403.51 214.551C401.786 213.643 400.493 213.175 398.958 212.927C398.042 212.771 394.414 212.68 393.202 212.78ZM396.668 224.631C396.955 224.686 397.333 224.814 397.503 224.915C397.791 225.098 397.8 225.126 397.746 225.511C397.719 225.722 397.144 227.584 396.462 229.648C395.788 231.702 395.178 233.564 395.106 233.793C395.034 234.023 394.8 234.738 394.576 235.399C394.361 236.05 393.741 237.948 393.202 239.618C392.654 241.278 392.179 242.727 392.134 242.828C392.089 242.929 391.784 243.874 391.451 244.937C390.724 247.322 390.634 247.506 390.302 247.506H390.042L390.051 238.609C390.069 229.932 390.069 229.694 390.257 228.886C390.356 228.428 390.562 227.813 390.715 227.511C391.173 226.575 392.421 225.401 393.427 224.961C394.298 224.576 395.654 224.438 396.668 224.631ZM400.906 229.758C400.987 230.235 401.014 232.968 401.014 240.021C401.014 250.285 401.005 250.404 400.574 251.422C400.412 251.816 399.757 252.89 399.47 253.238C399.182 253.587 398.482 254.082 397.907 254.339C397.566 254.495 397.225 254.66 397.144 254.706C396.821 254.88 395.851 255.008 395.196 254.953C394.163 254.88 392.879 254.385 392.663 253.981C392.565 253.779 392.699 253.211 393.382 251.129C393.669 250.248 394.028 249.111 394.181 248.606C394.325 248.102 394.675 247.029 394.944 246.222C395.707 243.901 398.311 235.857 399.263 232.83C399.739 231.317 400.188 229.95 400.26 229.785C400.332 229.629 400.385 229.446 400.385 229.373C400.385 229.198 400.565 229.033 400.691 229.079C400.754 229.107 400.843 229.409 400.906 229.758Z" fill="#1E0A5E" fill-opacity="0.88"/>
<path d="M342.011 224.273C343.214 224.172 343.87 224.026 345.109 223.604C347.021 222.953 349.23 221.751 350.451 220.696C351.277 219.99 352.813 218.367 353.352 217.633C355.174 215.156 355.929 213.579 356.674 210.653L356.952 209.543L356.988 198.078C357.006 190.493 356.988 186.338 356.925 185.788C356.782 184.586 356.189 182.302 355.749 181.293C355.48 180.651 355.085 179.844 354.842 179.413C354.69 179.138 354.447 178.679 354.294 178.404C353.917 177.716 353.055 176.561 352.346 175.799C351.762 175.185 350.362 173.91 349.733 173.442C349.41 173.204 347.533 172.075 347.452 172.075C347.425 172.075 347.111 171.938 346.752 171.764C345.836 171.332 344.696 170.947 343.223 170.59C341.984 170.287 341.939 170.287 339.811 170.287C337.8 170.287 337.575 170.305 336.444 170.544C332.879 171.305 329.97 172.864 327.456 175.386C326.98 175.863 326.459 176.432 326.28 176.661C324.753 178.661 323.352 181.468 322.886 183.449C322.275 186.054 322.32 185.246 322.275 195.968C322.239 207.131 322.275 208.048 322.832 210.882C323.2 212.744 324.439 215.441 325.741 217.192C327.797 219.953 329.153 221.164 331.703 222.503C333.427 223.411 334.72 223.879 336.255 224.127C337.171 224.282 340.799 224.374 342.011 224.273ZM338.545 212.423C338.258 212.368 337.881 212.24 337.71 212.139C337.423 211.955 337.414 211.928 337.468 211.543C337.495 211.332 338.069 209.47 338.752 207.406C339.425 205.351 340.036 203.49 340.107 203.26C340.179 203.031 340.413 202.315 340.637 201.655C340.853 201.004 341.472 199.105 342.011 197.436C342.559 195.776 343.035 194.327 343.08 194.226C343.124 194.125 343.43 193.18 343.762 192.116C344.489 189.732 344.579 189.548 344.911 189.548L345.172 189.548L345.163 198.445C345.145 207.122 345.145 207.36 344.956 208.167C344.857 208.626 344.651 209.24 344.498 209.543C344.04 210.479 342.792 211.653 341.787 212.093C340.916 212.478 339.56 212.616 338.545 212.423ZM334.307 207.296C334.226 206.819 334.199 204.086 334.199 197.032C334.199 186.769 334.208 186.65 334.639 185.632C334.801 185.237 335.456 184.164 335.744 183.816C336.031 183.467 336.731 182.972 337.306 182.715C337.647 182.559 337.988 182.394 338.069 182.348C338.392 182.174 339.362 182.045 340.018 182.1C341.05 182.174 342.334 182.669 342.55 183.073C342.649 183.274 342.514 183.843 341.831 185.925C341.544 186.806 341.185 187.943 341.032 188.447C340.889 188.952 340.538 190.025 340.269 190.832C339.506 193.153 336.902 201.197 335.95 204.223C335.474 205.737 335.025 207.103 334.953 207.268C334.882 207.424 334.828 207.608 334.828 207.681C334.828 207.855 334.648 208.02 334.522 207.975C334.46 207.947 334.37 207.644 334.307 207.296Z" fill="#1E0A5E" fill-opacity="0.88"/>
<ellipse cx="217.752" cy="217.696" rx="217.504" ry="217.523" fill="#5C2E97" fill-opacity="0.3"/>
</svg>
